Coordinates
version=1
nRows=24
nColumns=24
inDegrees=yes

Units are S.I. units (second, meters, Newtons, ...)
Angles are in degrees.

endheader
time	pelvis_tilt	pelvis_list	pelvis_rotation	pelvis_tx	pelvis_ty	pelvis_tz	hip_flexion_r	hip_adduction_r	hip_rotation_r	knee_angle_r	ankle_angle_r	subtalar_angle_r	mtp_angle_r	hip_flexion_l	hip_adduction_l	hip_rotation_l	knee_angle_l	ankle_angle_l	subtalar_angle_l	mtp_angle_l	lumbar_extension	lumbar_bending	lumbar_rotation
      4.88000000	      5.50384797	      8.83036283	      8.12168909	     -2.67483817	      0.71886368	      0.18477183	     16.04264615	    -10.74344775	      4.51570544	      2.12795314	      5.41492076	    -15.90249332	      0.00000000	    -23.97765136	      5.46561271	     13.39233556	    -11.51289804	     17.36208666	    -13.38368702	      0.00000000	    -27.82460801	     -5.77136919	    -17.13600513
      4.89000000	      5.73696046	      8.14194847	      8.26365653	     -2.66254105	      0.71877037	      0.18672666	     15.93094382	     -9.91218853	      2.07698837	      0.54334373	      3.17978945	    -18.38369472	      0.00000000	    -24.29436345	      4.46292669	     13.14144178	    -12.91038053	     16.70266267	    -13.09559101	      0.00000000	    -27.93226366	     -4.74998544	    -17.05777558
      4.90000000	      5.87416489	      7.33995046	      8.20739032	     -2.65037389	      0.71878967	      0.18885961	     15.96837757	     -8.94589541	      0.51712641	     -1.13434455	      0.37964676	    -21.34274406	      0.00000000	    -24.20463586	      3.51467714	     12.48451754	    -14.78033620	     15.91825371	    -12.91617316	      0.00000000	    -27.95492814	     -3.68550137	    -16.80949920
      4.91000000	      6.10884654	      6.38888138	      7.96586260	     -2.63828529	      0.71921462	      0.19108176	     16.01627969	     -7.77057674	     -1.04307564	     -2.97126351	     -1.62721803	    -22.92573800	      0.00000000	    -24.05055795	      2.54571258	     11.69537584	    -16.88242811	     14.67581873	    -13.04028079	      0.00000000	    -28.10908590	     -2.48168203	    -16.36561299
      4.92000000	      6.32225389	      5.33037215	      7.50426775	     -2.62629844	      0.71985389	      0.19341594	     16.18196142	     -6.43673677	     -2.27329268	     -4.91194645	     -2.73403196	    -23.39034301	      0.00000000	    -23.65631962	      1.63156046	     10.63294149	    -19.31058812	     12.96790122	    -13.47327690	      0.00000000	    -28.26857453	     -1.23271983	    -15.70881355
      4.93000000	      6.57101750	      4.19052500	      6.83325875	     -2.61439107	      0.72071125	      0.19590461	     16.26367087	     -4.94110680	     -2.82151907	     -6.74919489	     -3.37162156	    -23.54937726	      0.00000000	    -23.07575530	      0.73236885	      9.14740111	    -22.05625412	     10.86084142	    -13.98123337	      0.00000000	    -28.50589519	      0.03422101	    -14.90746800
      4.94000000	      6.78326683	      3.01498102	      6.00859141	     -2.60255668	      0.72166306	      0.19855020	     16.30189992	     -3.34154895	     -2.89460541	     -8.44880449	     -3.48288010	    -23.44209472	      0.00000000	    -22.24597994	     -0.15469531	      7.34959545	    -25.08566662	      8.29873256	    -14.61417973	      0.00000000	    -28.73746846	      1.25625880	    -13.99331356
      4.95000000	      6.94061241	      1.92060512	      5.11988608	     -2.59081307	      0.72269276	      0.20128171	     16.39912666	     -1.83630778	     -3.24824347	    -10.18704863	     -2.37083010	    -22.07920428	      0.00000000	    -21.23618741	     -0.93278866	      5.63613960	    -28.22823209	      4.91734571	    -15.94101294	      0.00000000	    -28.94415615	      2.32311023	    -13.12136989
      4.96000000	      6.96316130	      0.91222640	      4.24926050	     -2.57919343	      0.72366464	      0.20416175	     16.40228233	     -0.37328532	     -3.01831458	    -11.58909598	     -1.56317586	    -21.64687325	      0.00000000	    -19.86530639	     -1.71195569	      3.83705577	    -31.59643911	      1.16645344	    -17.24961604	      0.00000000	    -29.01400747	      3.23078572	    -12.29284541
      4.97000000	      7.04163269	      0.08852438	      3.37679006	     -2.56772301	      0.72483407	      0.20717504	     16.19786760	      0.91901550	     -2.71621448	    -12.80782795	     -0.33486614	    -20.96668127	      0.00000000	    -18.46934349	     -2.37857592	      2.15537188	    -34.93156477	     -3.15126529	    -18.96284071	      0.00000000	    -29.17507480	      3.88808863	    -11.54938602
      4.98000000	      7.02799872	     -0.59310517	      2.66004754	     -2.55645914	      0.72603904	      0.21018779	     15.89613625	      2.05059072	     -2.32458109	    -13.75125578	      0.89823285	    -20.58869278	      0.00000000	    -16.78075323	     -3.02757434	      0.70689213	    -38.37748342	     -7.65895549	    -20.76589929	      0.00000000	    -29.22127193	      4.38938575	    -10.99610820
      4.99000000	      6.98664368	     -1.10182251	      2.05873316	     -2.54544328	      0.72737251	      0.21317183	     15.46061146	      2.99183211	     -1.87039795	    -14.45086209	      2.10248412	    -20.38133627	      0.00000000	    -14.91282428	     -3.58826659	     -0.49124314	    -41.83683799	    -12.22141553	    -22.72208133	      0.00000000	    -29.23150145	      4.70077672	    -10.59230324
      5.00000000	      6.90430951	     -1.45579500	      1.56384773	     -2.53469849	      0.72882895	      0.21606665	     14.92048027	      3.75032094	     -1.37995865	    -14.90798038	      3.21793931	    -20.27787460	      0.00000000	    -12.86633045	     -4.05108233	     -1.44778582	    -45.26978177	    -16.58517654	    -24.75752750	      0.00000000	    -29.19148156	      4.85580532	    -10.33146017
      5.01000000	      6.76740764	     -1.70150738	      1.15130457	     -2.52423340	      0.73036460	      0.21880455	     14.32454637	      4.36009118	     -0.94149053	    -15.15880060	      4.21319866	    -20.24533885	      0.00000000	    -10.64248585	     -4.41538125	     -2.17066630	    -48.65052472	    -20.48455578	    -26.75893631	      0.00000000	    -29.08563418	      4.91466537	    -10.11193762
      5.02000000	      6.65069260	     -1.84015678	      0.71049741	     -2.51401124	      0.73204447	      0.22145569	     13.59787082	      4.84179824	     -0.46081198	    -15.20672673	      5.19685164	    -20.11022974	      0.00000000	     -8.41534160	     -4.65644339	     -2.82921105	    -51.83370192	    -23.75241119	    -28.79002156	      0.00000000	    -29.00682905	      4.84062737	     -9.91040764
      5.03000000	      6.44470889	     -1.93464378	      0.27806981	     -2.50403053	      0.73369691	      0.22391663	     12.88105298	      5.23219098	     -0.05041297	    -15.07673517	      6.01541564	    -19.97453198	      0.00000000	     -6.05169858	     -4.80072776	     -3.33181285	    -54.84284816	    -26.08680718	    -30.51675707	      0.00000000	    -28.82789932	      4.74369287	     -9.65756048
      5.04000000	      6.27561462	     -1.97295141	     -0.26256152	     -2.49420244	      0.73543955	      0.22632152	     12.04306473	      5.54276671	      0.39681908	    -14.78958538	      6.81197718	    -19.68933858	      0.00000000	     -3.80328897	     -4.83673258	     -3.86756202	    -57.50303483	    -27.47064912	    -32.04576955	      0.00000000	    -28.69562043	      4.55515437	     -9.32603812
      5.05000000	      6.10208714	     -2.02306939	     -0.89407881	     -2.48447975	      0.73716812	      0.22867989	     11.12604550	      5.84380119	      0.90259459	    -14.34240423	      7.48047715	    -19.47814820	      0.00000000	     -1.61886143	     -4.85206258	     -4.42715414	    -59.83195650	    -27.55701469	    -32.84955667	      0.00000000	    -28.55565268	      4.35953345	     -8.82755077
      5.06000000	      5.88807077	     -1.97634250	     -1.58253605	     -2.47485922	      0.73885260	      0.23091054	     10.22767360	      5.99759305	      1.38523487	    -13.84214635	      8.10901182	    -19.09642720	      0.00000000	      0.51777239	     -4.65628391	     -4.87036341	    -61.75178155	    -26.86147151	    -33.48885786	      0.00000000	    -28.36507508	      4.07236673	     -8.34782057
      5.07000000	      5.71429116	     -1.92475508	     -2.37834055	     -2.46526063	      0.74052511	      0.23318198	      9.25711915	      6.11922968	      1.87369363	    -13.28643767	      8.79315519	    -18.58030512	      0.00000000	      2.50490114	     -4.44659348	     -5.39093502	    -63.27287101	    -24.96272577	    -33.22452723	      0.00000000	    -28.21236879	      3.73910787	     -7.69683361
      5.08000000	      5.59249781	     -1.83910240	     -3.25010244	     -2.45567923	      0.74220093	      0.23547921	      8.20430816	      6.17630833	      2.42525340	    -12.68150269	      9.45475413	    -18.02684413	      0.00000000	      4.33188954	     -4.18220534	     -5.93299513	    -64.38360668	    -22.25689292	    -32.29934752	      0.00000000	    -28.11448257	      3.33876230	     -6.94908669
      5.09000000	      5.48260865	     -1.72819925	     -4.15275263	     -2.44612001	      0.74380443	      0.23777482	      7.14180433	      6.17316034	      2.99173296	    -12.07337645	     10.10588803	    -17.45319259	      0.00000000	      6.06844070	     -3.88753920	     -6.46014835	    -65.12647490	    -18.98418037	    -30.82351910	      0.00000000	    -28.02021132	      2.89814592	     -6.14081393
      5.10000000	      5.35786521	     -1.55685619	     -5.09564789	     -2.43657032	      0.74530777	      0.24009270	      6.09973000	      6.07783486	      3.59675978	    -11.45614102	     10.70206240	    -16.83861738	      0.00000000	      7.73889470	     -3.55128316	     -7.01815248	    -65.49901943	    -15.48896207	    -28.98651309	      0.00000000	    -27.89224708	      2.37248122	     -5.32223341
      5.11000000	      5.23616944	     -1.37691220	     -6.02557824	     -2.42705710	      0.74667910	      0.24238147	      5.09431446	      5.94226212	      4.17118964	    -10.89046477	     11.32712930	    -16.23700852	      0.00000000	      9.34342700	     -3.22456689	     -7.54177365	    -65.54870791	    -11.95595272	    -27.03390637	      0.00000000	    -27.76224555	      1.83808029	     -4.47535183
